<?xml version="1.0" standalone="no"?><!DOCTYPE svg PUBLIC "-//W3C//DTD SVG 1.1//EN" "http://www.w3.org/Graphics/SVG/1.1/DTD/svg11.dtd"><svg class="icon" width="200px" height="200.00px" viewBox="0 0 1024 1024" version="1.1" xmlns="http://www.w3.org/2000/svg"><path d="M85.838507 85.336747l0 853.326507c0 47.146667 38.13888 85.336747 85.234347 85.336747l707.152213 0c38.656 0 59.938133-23.973547 59.938133-68.005547 0-29.43488-25.207467-59.997867-59.938133-59.997867L253.661867 895.996587c-23.441067 0-42.61888-19.211947-42.61888-42.666667 0-23.458133 19.177813-42.6752 42.61888-42.6752l599.261867 0c47.09888 0 85.230933-38.181547 85.230933-85.328213L938.154667 85.336747C938.15296 38.186667 900.022613 0 852.923733 0L554.61376 0l0 405.116587c0 5.538133-2.136747 11.093333-6.181547 15.363413-8.297813 8.306347-21.951147 8.306347-30.25408 0-5.546667-5.771947-91.403947-77.238613-91.403947-77.238613s-85.874347 71.466667-91.421013 77.238613c-8.297813 8.306347-21.951147 8.306347-30.25408 0-4.0448-4.27008-6.181547-9.82528-6.181547-15.363413L298.917547 0l-127.84128 0C123.977387 0 85.838507 38.186667 85.838507 85.336747L85.838507 85.336747zM85.838507 85.336747" fill="#f4ea2a" /></svg>