<?xml version="1.0" standalone="no"?><!DOCTYPE svg PUBLIC "-//W3C//DTD SVG 1.1//EN" "http://www.w3.org/Graphics/SVG/1.1/DTD/svg11.dtd"><svg class="icon" width="200px" height="200.00px" viewBox="0 0 1024 1024" version="1.1" xmlns="http://www.w3.org/2000/svg"><path d="M536.128 240.6912c-25.792-18.5216-40.9472 15.7184-54.5536 42.304-13.2224 25.6896-113.5872 282.8416-119.9616 299.1616l298.7904 0C644.4032 528.0768 564.3008 261.0176 536.128 240.6912z" fill="#d4237a" /><path d="M512 25.152C243.1232 25.152 25.152 243.1104 25.152 511.9872 25.152 780.8768 243.1232 998.848 512 998.848S998.848 780.8768 998.848 511.9872C998.848 243.1104 780.8768 25.152 512 25.152zM347.84 582.1568c3.8528-15.9616 111.2064-290.816 141.1328-330.1376 0 0 34.7264-63.424 71.9104 4.416 32.9984 60.224 99.1616 277.5296 113.6512 325.7216l54.7456 0-218.5984 107.4304-7.3088 0-209.0752-107.4304L347.84 582.1568zM287.3088 582.1568l214.9504 110.4512 8.8064 0.1792 225.4848-110.6304 2.2144 0-227.1232 111.5904-9.2672 0L285.12 582.1568 287.3088 582.1568zM282.3296 584.32l218.9312 112.448 11.1232 0.1792 229.2608-112.64 0.4224 0.8576-229.44 112.7296-11.264 0-219.4688-112.7168L282.3296 584.32zM742.3872 656.7296l0 116.5312c0 14.1312-19.9808 25.6256-44.5312 25.6256L326.1824 798.8864c-24.5888 0-44.5696-11.4816-44.5696-25.6256l0-116.5312 0-50.9056 0-17.2032 217.7536 111.8336 0.8832 0.448 13.1072 0.1792 229.0304-112.512L742.3872 656.7296z" fill="#d4237a" /></svg>