<?xml version="1.0" standalone="no"?><!DOCTYPE svg PUBLIC "-//W3C//DTD SVG 1.1//EN" "http://www.w3.org/Graphics/SVG/1.1/DTD/svg11.dtd"><svg class="icon" width="200px" height="200.00px" viewBox="0 0 1024 1024" version="1.1" xmlns="http://www.w3.org/2000/svg"><path d="M144.701 667.85c0 37.477 32.006 67.807 71.463 67.807 39.499 0 71.506-30.329 71.506-67.807 0-37.477-32.006-67.807-71.506-67.807-39.456 0-71.463 30.329-71.463 67.807v0zM747.185 735.657c39.499 0 71.506-30.329 71.506-67.807s-32.006-67.807-71.506-67.807c-39.456 0-71.463 30.329-71.463 67.807 0 37.477 32.006 67.807 71.463 67.807v0zM683.979 445.009h71.209c2.256 0 4.682 0.525 7.066 0.889 1.915-0.243 3.747-0.889 5.702-0.889h119.135c39.456 0 95.299 59.65 95.299 96.961v15.67c0 24.554-28.56 22.817-64.91 22.533 14.853 26.009 23.411 55.691 23.411 87.393 0 101.649-86.702 184.071-193.707 184.071-73.763 0-137.863-39.213-170.593-96.882h-189.833c-32.772 57.668-97.002 96.882-170.892 96.882-107.173 0-194.047-82.426-194.047-184.071 0-61.95 32.433-116.429 81.891-149.788-1.106-4.725-1.788-9.611-1.788-14.66l44.862-70.916c-38.009-18.98-63.037-53.551-63.037-84.404v-24.231c0-40.142 33.754-72.651 75.337-72.651h154.89c31.795-32.629 85.551-70.028 112.368-55.326 34.307 18.78 22.602 68.976 8.853 100.355l-24.985 59.969v16.113c0 33.157-23.111 60.779-54.61 69.421-34.901 122.569 98.236 187.020 184.724 95.793 2.98-4.885 5.66-10.054 7.872-15.385 0.382 0.324 0.554 0.484 0.511 0.405 30.348-65.18 105.855-75.679 135.266-77.258v0zM926.545 386.573h-277.301c-41.798 0-75.635-30.734-75.635-68.614v-114.37c0-37.921 33.84-68.654 75.635-68.654h277.301c41.756 0 75.635 30.734 75.635 68.654v114.37c0 37.883-33.882 68.614-75.635 68.614v0z" fill="#185eef" /></svg>