<?xml version="1.0" standalone="no"?><!DOCTYPE svg PUBLIC "-//W3C//DTD SVG 1.1//EN" "http://www.w3.org/Graphics/SVG/1.1/DTD/svg11.dtd"><svg class="icon" width="200px" height="200.00px" viewBox="0 0 1024 1024" version="1.1" xmlns="http://www.w3.org/2000/svg"><path d="M512 0.095997c-282.711165 0-511.920002 229.176838-511.920002 511.920002s229.176838 511.888003 511.920002 511.888003c282.711165 0 511.888003-229.176838 511.888003-511.888003S794.711165 0.095997 512 0.095997zM334.789538 799.943002l-22.143308 0c-24.479235 0-44.286616-19.83938-44.286616-44.286616l0-487.280772c0-24.479235 19.807381-44.286616 44.286616-44.286616l398.70754 0c16.351489 0 30.463048 8.95972 38.142808 22.143308l-436.882347 0c-12.255617 0-22.143308 9.91969-22.143308 22.143308l0 22.143308c0 12.255617 9.91969 22.143308 22.143308 22.143308l22.143308 0L334.757539 799.943002zM644.891847 290.518921l0 179.962376-54.462298-44.286616-56.286241 44.286616 0-179.962376L644.891847 290.518921zM755.640386 755.656386c0 24.447236-19.871379 44.286616-44.318615 44.286616l0 0-354.420924 0 0-487.312771 155.067154 0 0 202.105684 78.429549-59.582138 76.605606 59.582138 0-202.105684 88.605231 0L755.608387 755.656386z" fill="#13227a" /></svg>