<?xml version="1.0" standalone="no"?><!DOCTYPE svg PUBLIC "-//W3C//DTD SVG 1.1//EN" "http://www.w3.org/Graphics/SVG/1.1/DTD/svg11.dtd"><svg class="icon" width="200px" height="199.80px" viewBox="0 0 1025 1024" version="1.1" xmlns="http://www.w3.org/2000/svg"><path d="M664.0333 271.185928c-13.9776-7.97696-30.464001-11.49952-48.496641-10.41408-1.32096 0.07168-2.64192-0.01024-3.9424-0.256-0.72704-0.1536-1.46432-0.27648-2.21184-0.29696-18.954241 0-44.410881 36.259841-50.585602 84.787203-4.08576 32.081921 1.23904 62.095362 13.57824 76.451842 5.7856 6.72768 10.69056 6.84032 12.29824 6.88128 1.39264 0 16.34304 0.4608 26.378241 12.87168 7.65952 9.46176 9.90208 22.282241 6.63552 38.072321-0.19456 0.9216-0.4608 1.8432-0.8192 2.72384-8.64256 21.504001-18.933761 42.864641-30.597121 63.488002-12.71808 22.497281-27.033601 44.021761-42.547201 63.989762-0.68608 0.89088-1.45408 1.69984-2.29376 2.39616-7.54688 7.69024-16.865281 11.74528-27.084801 11.74528-16.20992 0-28.774401-10.48576-30.156801-11.68384-1.19808-1.03424-2.24256-2.2528-3.08224-3.60448-3.75808-6.02112-11.95008-7.28064-18.145281-7.28064-18.094081 0-41.738241 10.11712-63.252482 27.054081-37.529601 29.542401-54.087682 68.372482-45.619201 84.254723 1.29024 2.42688 2.2016 3.95264 2.9184 5.18144 8.42752 14.592 21.032961 27.852801 34.652161 35.635201 12.34944 7.05536 26.531841 10.61888 42.178561 10.61888 71.659522 0 163.112965-73.256962 222.443527-178.165765C730.152982 454.983694 733.706262 310.978569 664.0333 271.185928z" fill="#1afa29" /><path d="M512.000015 0c-282.767368 0-512.000015 229.242887-512.000015 512.000015 0 282.828808 229.232647 512.000015 512.000015 512.000015 282.818568 0 512.000015-229.171207 512.000015-512.000015C1024.000031 229.242887 794.818584 0 512.000015 0zM460.523534 428.144653c1.60768 8.7552-4.18816 17.152001-12.93312 18.739201-6.2464 1.14688-11.6736 4.6592-15.27808 9.8816-3.61472 5.21216-4.9664 11.54048-3.81952 17.786881 1.60768 8.74496-4.18816 17.131521-12.93312 18.739201-0.98304 0.17408-1.96608 0.27648-2.9184 0.27648-7.6288 0-14.39744-5.44768-15.8208-13.2096-2.69312-14.70464 0.50176-29.583361 8.99072-41.891841 8.48896-12.29824 21.268481-20.572161 35.973121-23.265281C450.539534 413.603852 458.915854 419.399693 460.523534 428.144653zM427.202573 396.410892c-35.870721 6.58432-59.709442 41.113601-53.135362 76.984322 1.60768 8.7552-4.18816 17.152001-12.94336 18.749441-0.9728 0.17408-1.95584 0.27648-2.9184 0.27648l0 0c-7.6288 0-14.39744-5.4272-15.8208-13.19936-9.78944-53.350402 25.651201-104.693763 79.001602-114.472963 8.72448-1.59744 17.131521 4.18816 18.739201 12.93312C441.743373 386.416652 435.947533 394.813452 427.202573 396.410892zM298.803209 509.736975c-0.98304 0.18432-1.96608 0.256-2.92864 0.256-7.61856 0-14.3872-5.4272-15.8208-13.19936-8.1408-44.380161 1.49504-89.262083 27.115521-126.392324s64.174082-62.054402 108.554243-70.195202c8.73472-1.59744 17.131521 4.18816 18.739201 12.93312 1.60768 8.74496-4.18816 17.131521-12.94336 18.739201-35.901441 6.58432-67.102722 26.757121-87.848963 56.801282-20.736001 30.054401-28.528641 66.385922-21.944321 102.297603C313.333769 499.732495 307.548169 508.119055 298.803209 509.736975zM684.072981 601.344018c-65.740802 116.254723-166.297605 194.365446-250.224648 194.375686l0.01024 0-0.01024 0 0 0c-21.268481 0-40.785921-4.97664-58.009602-14.82752-18.401281-10.50624-32.757761-26.705921-44.912641-45.352961-1.61792-2.9184-1.78176-3.24608-3.42016-6.23616-18.350081-33.587201 2.26304-86.732803 52.459522-126.269444 27.371521-21.544961 57.610242-33.894401 83.005442-33.894401 18.872321 0 34.140161 6.92224 43.386881 19.568641 1.98656 1.30048 5.28384 2.99008 7.99744 2.99008 0.77824 0 2.39616 0 4.8128-2.74432 0.16384-0.16384 0.31744-0.32768 0.48128-0.512 14.1312-18.329601 27.197441-38.072321 38.850561-58.675202 10.71104-18.944001 20.193281-38.533121 28.180481-58.275842 1.10592-6.23616 0.27648-9.34912-0.44032-10.21952-0.512-0.62464-2.02752-1.03424-2.02752-1.03424-13.85472-0.32768-26.204161-6.5536-36.044801-17.991681-18.503681-21.534721-26.378241-59.412482-21.043201-101.304323 8.17152-64.225282 43.397121-112.660483 81.940482-112.660483 0.11264 0 0.96256 0.01024 1.09568 0.01024 1.83296 0.04096 3.61472 0.21504 5.36576 0.49152 23.654401-1.05472 45.414401 3.88096 64.327682 14.67392C767.416343 293.488649 769.249303 450.682894 684.072981 601.344018z" fill="#1afa29" /></svg>