<?xml version="1.0" standalone="no"?><!DOCTYPE svg PUBLIC "-//W3C//DTD SVG 1.1//EN" "http://www.w3.org/Graphics/SVG/1.1/DTD/svg11.dtd"><svg class="icon" width="200px" height="200.00px" viewBox="0 0 1024 1024" version="1.1" xmlns="http://www.w3.org/2000/svg"><path d="M939.84 1.024H84.16a83.2 83.2 0 0 0-83.2 83.2v855.616a83.2 83.2 0 0 0 83.2 83.2h855.616a83.2 83.2 0 0 0 83.2-83.2V84.16A83.2 83.2 0 0 0 939.84 1.024z m-233.472 208a109.056 109.056 0 1 1-0.064 218.048 109.056 109.056 0 0 1 0.064-218.048z m94.4 600l-555.776 1.088s-94.272-1.728-69.12-81.088l108.096-341.312s31.872-68.672 66.368-24.064 193.856 259.584 193.856 259.584 53.888 49.408 91.712 2.688 61.44-76.8 61.44-76.8 57.024-55.296 82.624 12.416l63.872 169.024s24.64 68.416-43.072 78.464z" fill="#d4237a" /></svg>