<?xml version="1.0" standalone="no"?><!DOCTYPE svg PUBLIC "-//W3C//DTD SVG 1.1//EN" "http://www.w3.org/Graphics/SVG/1.1/DTD/svg11.dtd"><svg class="icon" width="200px" height="200.00px" viewBox="0 0 1024 1024" version="1.1" xmlns="http://www.w3.org/2000/svg"><path d="M383.623679 764.249071c0-69.648266 56.45478-126.111233 126.104069-126.111233 69.659523 0 126.110209 56.463989 126.110209 126.111233 0 69.647243-56.450686 126.108163-126.110209 126.108163C440.078459 890.357234 383.623679 833.896314 383.623679 764.249071L383.623679 764.249071zM667.368068 512.035816c0-69.650313 56.44864-126.112256 126.101-126.112256 69.656453 0 126.112256 56.461943 126.112256 126.112256 0 69.653383-56.455803 126.102023-126.112256 126.102023C723.816708 638.137839 667.368068 581.691245 667.368068 512.035816L667.368068 512.035816zM383.623679 259.824607c0-69.657476 56.45478-126.108163 126.104069-126.108163 69.659523 0 126.110209 56.450686 126.110209 126.108163 0 69.650313-56.450686 126.098953-126.110209 126.098953C440.078459 385.92356 383.623679 329.475943 383.623679 259.824607L383.623679 259.824607zM131.408377 512.035816c0-69.650313 56.452733-126.112256 126.105093-126.112256 69.659523 0 126.109186 56.461943 126.109186 126.112256 0 69.653383-56.450686 126.102023-126.109186 126.102023C187.86111 638.137839 131.408377 581.691245 131.408377 512.035816L131.408377 512.035816zM446.675714 512.035816c0-34.827203 28.230971-63.056128 63.052035-63.056128 34.831296 0 63.058175 28.228925 63.058175 63.056128 0 34.83539-28.226878 63.053058-63.058175 63.053058C474.906685 575.08785 446.675714 546.870182 446.675714 512.035816L446.675714 512.035816zM778.029424 939.377694c31.05325 45.333488 103.878882 77.090772 188.840926 77.090772 16.279778 0 47.291073-97.888448 47.291073-97.888448-58.20361-8.461719-106.747209-32.235169-133.98762-64.002686 83.20912-89.966011 133.98762-210.320123 133.98762-342.53947 0-278.594089-225.838561-504.429581-504.431627-504.429581-278.592043 0-504.429581 225.836515-504.429581 504.427534 0 278.595113 225.838561 504.432651 504.429581 504.432651C608.302835 1016.468466 700.329784 988.254891 778.029424 939.377694L778.029424 939.377694z" fill="#2c2c2c" /></svg>